<svg xmlns="http://www.w3.org/2000/svg" width="169" height="231" viewBox="0 0 169 231">
  <g id="splesh_logo" data-name="splesh logo" transform="translate(-219.248 -69.567)">
    <g id="logo" transform="translate(219.248 69.567)">
      <path id="Path_1" data-name="Path 1" d="M130.8,120.193a120.551,120.551,0,0,0,8.876-16.43c-9.732,29.806-34.395,46.665-66.093,46.665C32.942,150.427,0,116.753,0,75.214S32.942,0,73.58,0a73.05,73.05,0,0,1,64.476,39.316c-11.123-17.035-31.03-26.54-54.595-26.54A70.009,70.009,0,0,0,13.5,82.829c0,38.688,31.325,63.642,69.966,63.642,19.216,0,37.956-13.714,47.336-26.278" transform="translate(0 0)" fill="#002f35"/>
      <path id="Path_2" data-name="Path 2" d="M169.515,108.084a5.5,5.5,0,1,0-4.719,1.56,77.726,77.726,0,0,0-44.572,41.9l110.049-36.39a77.721,77.721,0,0,0-60.758-7.067M142.8,128.135s-8.394,5.082-17.585,18.23c.188-.42,6.255-13.917,16.429-20.212,0,0,1.4,1.552,1.156,1.982m59.147-20.953c11.959.3,24.008,7.264,24.381,7.482-14.568-6.713-24.381-6.867-24.381-6.867-.43-.244,0-.615,0-.615" transform="translate(-91.767 -75.272)" fill="#002f35"/>
      <path id="Path_3" data-name="Path 3" d="M418.7,250.6a.956.956,0,0,1,.242-.868l48.218-51.762.12-.13a1.984,1.984,0,0,1,1.395-.572,2.021,2.021,0,0,1,1.544,3.3.011.011,0,0,0,0,.006l-.267.268h0l-49.988,50.035a.931.931,0,0,1-.59.282.617.617,0,0,1-.668-.559" transform="translate(-319.462 -150.445)" fill="#002f35"/>
      <path id="Path_4" data-name="Path 4" d="M438.542,263.137a1.009,1.009,0,0,1,.442-.842l61.175-42.689.153-.108a2.093,2.093,0,0,1,1.564-.281,2.131,2.131,0,0,1,.861,3.744.013.013,0,0,0-.006,0l-.335.217h0L439.777,263.7a.981.981,0,0,1-.67.16.651.651,0,0,1-.565-.724" transform="translate(-334.612 -167.145)" fill="#002f35"/>
      <path id="Path_5" data-name="Path 5" d="M229.179,379.19a58.4,58.4,0,0,1-116.18,0Z" transform="translate(-86.207 -289.18)" fill="#002f35"/>
      <path id="Path_6" data-name="Path 6" d="M281.686,333.559a1.281,1.281,0,0,1-.733.207q-3.7.02-7.406,0a.057.057,0,0,1-.058-.058.069.069,0,0,1,.005-.026c1.234-2.638.106-4.938-1.993-6.643-1.1-.893-3.44-2.363-1.515-3.96a.3.3,0,0,1,.162-.065,58.451,58.451,0,0,1,8.392-.017.077.077,0,0,1,.071.084.031.031,0,0,1,0,.013c-.735,3,1.167,5.18,3.461,6.715,1.82,1.219,1.077,2.765-.385,3.746" transform="translate(-205.408 -246.221)" fill="#002f35"/>
      <path id="Path_7" data-name="Path 7" d="M229.687,335.815a.3.3,0,0,1-.169.054l-7.733,0a.062.062,0,0,1-.061-.061.056.056,0,0,1,.005-.024,4.887,4.887,0,0,0,.141-3.913c-.765-1.959-2.611-3-3.872-4.188a.054.054,0,0,1,0-.076.072.072,0,0,1,.024-.015,59.38,59.38,0,0,1,8.63-1.96.063.063,0,0,1,.071.052.031.031,0,0,1,0,.018c-.426,2.821,1.4,4.708,3.5,6.178,2.067,1.44.986,2.867-.538,3.939" transform="translate(-166.294 -248.331)" fill="#002f35"/>
      <path id="Path_8" data-name="Path 8" d="M161.5,341.743c1.018.618,2.119,1.812,1.28,2.975a6.646,6.646,0,0,1-1.356,1.3.28.28,0,0,1-.168.056l-16.11.005q-.145,0-.024-.082A67.653,67.653,0,0,1,158.783,339a.117.117,0,0,1,.14.045,8.31,8.31,0,0,0,2.581,2.7" transform="translate(-110.673 -258.523)" fill="#002f35"/>
      <path id="Path_9" data-name="Path 9" d="M333.793,334.024a.3.3,0,0,0,.169.054l7.733,0a.062.062,0,0,0,.061-.061.056.056,0,0,0-.005-.024,4.887,4.887,0,0,1-.141-3.913c.765-1.959,2.611-3,3.872-4.188a.054.054,0,0,0,0-.076.071.071,0,0,0-.024-.015,93.405,93.405,0,0,0-14.212-2.518.065.065,0,0,0-.071.052.032.032,0,0,0,0,.019c.426,2.821,4.185,5.266,2.078,6.736-2.067,1.44-.986,2.867.538,3.939" transform="translate(-252.648 -246.54)" fill="#002f35"/>
      <path id="Path_10" data-name="Path 10" d="M392.711,339.043a.117.117,0,0,1,.14-.045,67.658,67.658,0,0,1,13.658,6.994q.121.082-.024.082l-16.11-.005a.28.28,0,0,1-.168-.056,6.646,6.646,0,0,1-1.356-1.3c-.839-1.163.262-2.358,1.28-2.975a8.313,8.313,0,0,0,2.581-2.7" transform="translate(-296.423 -258.523)" fill="#002f35"/>
    </g>
    <g id="erestro" transform="translate(221.013 226.454)">
      <path id="Path_11" data-name="Path 11" d="M29.851,751.881a14.565,14.565,0,0,1-6.965-1.587,11.267,11.267,0,0,1-4.611-4.516,13.987,13.987,0,0,1-1.642-6.951,14.307,14.307,0,0,1,1.56-6.732,11.873,11.873,0,0,1,4.406-4.721,12.558,12.558,0,0,1,6.677-1.738,10.133,10.133,0,0,1,7.43,2.655,13.725,13.725,0,0,1,3.653,7.06.97.97,0,0,1,.028.274.837.837,0,0,1-.205.616,1.633,1.633,0,0,1-.533.342,15.839,15.839,0,0,1-1.97.766q-1.041.328-2.025.712-2.873,1.067-5.774,2.093t-5.747,2.176q-.219.11-.219.274a.435.435,0,0,0,.055.192,6.951,6.951,0,0,0,3.01,2.928,9.047,9.047,0,0,0,4.105.958,9.256,9.256,0,0,0,3.216-.547,19.87,19.87,0,0,0,2.942-1.368,3.787,3.787,0,0,1,.383-.192.961.961,0,0,1,.383-.082.744.744,0,0,1,.589.233,2.155,2.155,0,0,1,.342.534q.109.192.424.862t.6,1.341a3.123,3.123,0,0,1,.287.862.727.727,0,0,1-.164.492,2.385,2.385,0,0,1-.383.356,14.223,14.223,0,0,1-4.721,2.025,21.592,21.592,0,0,1-5.132.684m-6.869-13.328,5.528-1.916q2.764-.958,5.5-1.916a8.108,8.108,0,0,0-1.9-2.627,4.26,4.26,0,0,0-3-1.122,5.259,5.259,0,0,0-3.448,1.122,6.674,6.674,0,0,0-2.025,2.86,10.1,10.1,0,0,0-.657,3.6" transform="translate(-16.633 -712.856)" fill="#002f35"/>
      <path id="Path_12" data-name="Path 12" d="M146.3,673.19a19.415,19.415,0,0,1,7.334,1.327,11.379,11.379,0,0,1,5.213,4.105,12.329,12.329,0,0,1,1.929,7.184,14.53,14.53,0,0,1-1.368,6.376,11.6,11.6,0,0,1-4.379,4.762.282.282,0,0,0-.192.274,8.2,8.2,0,0,0,.725,1.286q.725,1.177,1.834,2.9t2.271,3.5q1.163,1.779,2.039,3.147t1.122,1.751q.137.22.274.479a1.19,1.19,0,0,1,.137.561.567.567,0,0,1-.506.6,4.116,4.116,0,0,1-.835.109h-5.446a1.144,1.144,0,0,1-.93-.493,24.487,24.487,0,0,1-1.587-2.312q-.739-1.217-1.505-2.367-1.2-1.861-2.436-3.708t-2.408-3.735a.336.336,0,0,0-.3-.192h-4.9a.29.29,0,0,0-.328.328q0,1.888-.014,3.79t-.041,3.79q0,.794.041,1.929a10.618,10.618,0,0,1-.068,1.875,1.827,1.827,0,0,1-.287.821,1,1,0,0,1-.835.274h-4.735A1,1,0,0,1,135,710.409q0-1.478.055-2.97t.082-3q.082-6.24.082-12.507,0-5.938-.082-11.932-.028-1.422-.068-2.833t-.041-2.832a1,1,0,0,1,1.122-1.149Zm-4.242,18.992h5.528a5.82,5.82,0,0,0,6.1-6.13,6.446,6.446,0,0,0-1.587-4.543,5.726,5.726,0,0,0-4.434-1.724h-5.637q.027,3.093.027,6.2Z" transform="translate(-106.192 -673.19)" fill="#002f35"/>
      <path id="Path_13" data-name="Path 13" d="M277.371,751.881a14.565,14.565,0,0,1-6.965-1.587,11.267,11.267,0,0,1-4.611-4.516,13.987,13.987,0,0,1-1.642-6.951,14.307,14.307,0,0,1,1.56-6.732,11.873,11.873,0,0,1,4.406-4.721,12.558,12.558,0,0,1,6.677-1.738,10.133,10.133,0,0,1,7.43,2.655,13.725,13.725,0,0,1,3.653,7.06.971.971,0,0,1,.028.274.837.837,0,0,1-.205.616,1.633,1.633,0,0,1-.533.342,15.841,15.841,0,0,1-1.97.766q-1.041.328-2.025.712-2.873,1.067-5.774,2.093t-5.747,2.176q-.219.11-.219.274a.435.435,0,0,0,.055.192,6.951,6.951,0,0,0,3.01,2.928,9.047,9.047,0,0,0,4.105.958,9.256,9.256,0,0,0,3.216-.547,19.87,19.87,0,0,0,2.942-1.368,3.783,3.783,0,0,1,.383-.192.961.961,0,0,1,.383-.082.744.744,0,0,1,.589.233,2.155,2.155,0,0,1,.342.534q.109.192.424.862t.6,1.341a3.122,3.122,0,0,1,.287.862.727.727,0,0,1-.164.492,2.382,2.382,0,0,1-.383.356A14.223,14.223,0,0,1,282.5,751.2a21.592,21.592,0,0,1-5.132.684M270.5,738.553l5.528-1.916q2.764-.958,5.5-1.916a8.109,8.109,0,0,0-1.9-2.627,4.26,4.26,0,0,0-3-1.122,5.259,5.259,0,0,0-3.448,1.122,6.675,6.675,0,0,0-2.025,2.86,10.1,10.1,0,0,0-.657,3.6" transform="translate(-203.907 -712.856)" fill="#002f35"/>
      <path id="Path_14" data-name="Path 14" d="M380.616,752.53a10.139,10.139,0,0,1-3.257-.575,7,7,0,0,1-2.819-1.724.993.993,0,0,1-.328-.712,4.79,4.79,0,0,1,.178-.835q.178-.67.4-1.382t.274-.931a3.132,3.132,0,0,1,.3-.643.653.653,0,0,1,.6-.315,3.655,3.655,0,0,1,1.615.684,4.65,4.65,0,0,0,2.518.684,2.166,2.166,0,0,0,2.49-2.408,2.315,2.315,0,0,0-1-2.162q-1-.6-2.148-1.2a9.562,9.562,0,0,1-3.5-3.01,7.729,7.729,0,0,1-1.2-4.433,6.906,6.906,0,0,1,1.984-5.255,7.362,7.362,0,0,1,5.3-1.888,11.325,11.325,0,0,1,1.272.11,15.407,15.407,0,0,1,1.793.342,5.785,5.785,0,0,1,1.587.629,1.126,1.126,0,0,1,.657.944,3.415,3.415,0,0,1-.219,1.136q-.219.616-.356,1.136a3.275,3.275,0,0,1-.3.684.7.7,0,0,1-.657.328,2.963,2.963,0,0,1-1.232-.3,3.377,3.377,0,0,0-1.423-.3,2.906,2.906,0,0,0-1.833.616,2.071,2.071,0,0,0-.794,1.738,2.567,2.567,0,0,0,.78,2,7.832,7.832,0,0,0,1.93,1.259,16.73,16.73,0,0,1,2.3,1.341,6.356,6.356,0,0,1,1.929,2.2,8.046,8.046,0,0,1,.78,3.872,9.182,9.182,0,0,1-1.957,5.939,6.824,6.824,0,0,1-5.651,2.436" transform="translate(-287.171 -713.45)" fill="#002f35"/>
      <path id="Path_15" data-name="Path 15" d="M448.179,694.677q0-2.353-.027-4.694t-.028-4.666a.992.992,0,0,1,1.122-1.122h4.3a.992.992,0,0,1,1.122,1.122q0,2.326-.014,4.666t-.014,4.694q0,.328.356.328h4.3a.992.992,0,0,1,1.122,1.122q0,.849-.014,1.711t-.014,1.738a.992.992,0,0,1-1.122,1.122h-4.269q-.356,0-.356.328,0,4.434.027,8.867t.028,8.867a.992.992,0,0,1-1.122,1.122h-4.351a.992.992,0,0,1-1.122-1.122q0-4.434.041-8.867t.041-8.867q0-.411-.575-.4t-1.314.1a3.057,3.057,0,0,1-1.314-.109q-.575-.191-.575-1.04v-3.448a.992.992,0,0,1,1.122-1.122h2.3q.355,0,.356-.328" transform="translate(-340.277 -681.513)" fill="#002f35"/>
      <path id="Path_16" data-name="Path 16" d="M531.368,727.932a.994.994,0,0,1,1.122,1.013l.274,3.12c0,.018.018.15.055.4s.1.369.192.369.187-.1.287-.3l.178-.356a9.764,9.764,0,0,1,2.737-3.312,6.634,6.634,0,0,1,4.078-1.2,14.22,14.22,0,0,1,1.464.1q.889.1.889.917a7.828,7.828,0,0,1-.164,1.286q-.165.876-.369,1.765t-.315,1.355a1.627,1.627,0,0,1-.342.725,1,1,0,0,1-.78.26,3.355,3.355,0,0,1-.534-.041,3.643,3.643,0,0,0-.561-.041,5.188,5.188,0,0,0-3.64,1.355,8.471,8.471,0,0,0-2.217,3.325,11.021,11.021,0,0,0-.739,3.886v9.086a.992.992,0,0,1-1.122,1.122h-4.242A1,1,0,0,1,526.5,751.6q0-4.242.041-8.47t.041-8.443v-5.638a.992.992,0,0,1,1.122-1.122Z" transform="translate(-402.389 -714.385)" fill="#002f35"/>
      <path id="Path_17" data-name="Path 17" d="M598.933,739.106a13.931,13.931,0,0,1,1.629-6.787,12.181,12.181,0,0,1,4.556-4.721,12.992,12.992,0,0,1,6.76-1.738,12.466,12.466,0,0,1,6.6,1.71,11.894,11.894,0,0,1,4.392,4.666,13.93,13.93,0,0,1,1.573,6.65,14.179,14.179,0,0,1-1.56,6.746,11.492,11.492,0,0,1-4.392,4.611,13,13,0,0,1-6.719,1.67,13.689,13.689,0,0,1-6.746-1.6,11.326,11.326,0,0,1-4.488-4.474,13.609,13.609,0,0,1-1.6-6.732m12.808-7.717a5.416,5.416,0,0,0-3.476,1.108,6.914,6.914,0,0,0-2.107,2.833,9.371,9.371,0,0,0-.712,3.612,8.114,8.114,0,0,0,.753,3.421,6.83,6.83,0,0,0,2.148,2.682,5.384,5.384,0,0,0,3.311,1.04,5.544,5.544,0,0,0,3.462-1.054,6.511,6.511,0,0,0,2.08-2.723,9.314,9.314,0,0,0,0-7.075,6.752,6.752,0,0,0-2.066-2.764,5.3,5.3,0,0,0-3.394-1.081" transform="translate(-457.204 -713.025)" fill="#002f35"/>
    </g>
    <g id="single_vendor" transform="translate(222.324 275.136)">
      <path id="Path_18" data-name="Path 18" d="M32.679,876.04a4.7,4.7,0,0,1-.1.525q-.1.454-.206.915a4.86,4.86,0,0,1-.149.56,1.239,1.239,0,0,1-.156.348.379.379,0,0,1-.34.149.954.954,0,0,1-.34-.071,10.07,10.07,0,0,0-1.085-.305,5.227,5.227,0,0,0-1.128-.12,5.172,5.172,0,0,0-1.411.2,2.574,2.574,0,0,0-1.17.681,1.833,1.833,0,0,0-.468,1.333A2.755,2.755,0,0,0,26.665,882a4.765,4.765,0,0,0,1.383,1.177q.844.49,1.794.964a11.2,11.2,0,0,1,1.794,1.12,4.809,4.809,0,0,1,1.922,4.135,5.227,5.227,0,0,1-.993,3.347,5.541,5.541,0,0,1-2.61,1.8,10.666,10.666,0,0,1-3.475.553q-.553,0-1.312-.064t-1.5-.2a6.866,6.866,0,0,1-1.255-.333,1.026,1.026,0,0,1-.284-.17.393.393,0,0,1-.114-.312,4.222,4.222,0,0,1,.114-.56q.113-.475.241-.957t.156-.6a1.3,1.3,0,0,1,.163-.326.385.385,0,0,1,.333-.128.845.845,0,0,1,.27.042q.694.2,1.411.34a7.378,7.378,0,0,0,1.439.142,5.972,5.972,0,0,0,1.723-.248,2.89,2.89,0,0,0,1.362-.844,2.36,2.36,0,0,0,.532-1.631,3.015,3.015,0,0,0-.553-1.893,4.668,4.668,0,0,0-1.418-1.206q-.865-.49-1.837-.936a12.257,12.257,0,0,1-1.837-1.042,4.742,4.742,0,0,1-1.418-1.546,5.693,5.693,0,0,1,.34-5.51,5.16,5.16,0,0,1,2.354-1.695,8.986,8.986,0,0,1,3.135-.539,13.823,13.823,0,0,1,1.929.156,7.05,7.05,0,0,1,1.858.5.765.765,0,0,1,.27.177.454.454,0,0,1,.1.319" transform="translate(-22.013 -874.437)" fill="#002f35"/>
      <path id="Path_19" data-name="Path 19" d="M78.82,878.421a1.8,1.8,0,0,1,.582-1.341,1.9,1.9,0,0,1,1.361-.56,1.964,1.964,0,0,1,1.4.574,1.886,1.886,0,0,1,.029,2.737,1.869,1.869,0,0,1-1.369.575,1.932,1.932,0,0,1-1.4-.589,1.9,1.9,0,0,1-.6-1.4m.213,8.553v-3.135a.514.514,0,0,1,.582-.582H81.8a.514.514,0,0,1,.581.582q0,2.922.014,5.851t.014,5.85a.514.514,0,0,1-.582.582H79.586A.514.514,0,0,1,79,895.54q0-2.141.014-4.283t.014-4.283" transform="translate(-64.977 -875.67)" fill="#002f35"/>
      <path id="Path_20" data-name="Path 20" d="M107.84,903.155a.519.519,0,0,1,.581.511q.042.284.071.567t.057.567a1.23,1.23,0,0,0,.028.163c.019.09.052.135.1.135a.176.176,0,0,0,.135-.085c.043-.057.073-.1.092-.128a4.86,4.86,0,0,1,2.071-1.574,6.92,6.92,0,0,1,2.567-.482,4.516,4.516,0,0,1,2.035.461,3.812,3.812,0,0,1,1.5,1.3,3.515,3.515,0,0,1,.567,2.007q0,2.2.049,4.411t.05,4.411a.52.52,0,0,1-.581.6h-2.227q-.54,0-.582-.582-.042-.61-.028-1.227t0-1.227q-.014-1.3-.014-2.6v-2.582a1.89,1.89,0,0,0-.582-1.51,2.28,2.28,0,0,0-1.546-.5,2.75,2.75,0,0,0-1.978.738,4.521,4.521,0,0,0-1.149,1.815,6.4,6.4,0,0,0-.376,2.113q0,1.248-.014,2.489t-.028,2.489a.514.514,0,0,1-.581.582h-2.227a.52.52,0,0,1-.581-.6q0-.794.021-1.582t.036-1.567q.042-3.319.042-6.638v-1.9a.514.514,0,0,1,.582-.582Z" transform="translate(-84.963 -895.567)" fill="#002f35"/>
      <path id="Path_21" data-name="Path 21" d="M171.823,920.954a6.8,6.8,0,0,1-5.177-2.213,1.936,1.936,0,0,1-.128-.17.35.35,0,0,1-.057-.2.98.98,0,0,1,.22-.454q.22-.312.482-.631t.362-.433a2.219,2.219,0,0,1,.2-.177.377.377,0,0,1,.241-.078.488.488,0,0,1,.206.042,1.318,1.318,0,0,1,.177.1,7.171,7.171,0,0,0,1.511.674,5.526,5.526,0,0,0,1.638.234,6.117,6.117,0,0,0,1.589-.213,2.94,2.94,0,0,0,1.333-.745,1.988,1.988,0,0,0,.539-1.482c0-.047,0-.165.007-.355s-.021-.284-.078-.284a.141.141,0,0,0-.106.057q-.05.057-.078.085a4.786,4.786,0,0,1-3.588,1.518,4.99,4.99,0,0,1-3.035-.936,6.152,6.152,0,0,1-1.964-2.418,7.3,7.3,0,0,1-.688-3.113v-.284a7.325,7.325,0,0,1,.4-2.354,7.692,7.692,0,0,1,1.142-2.17,5.845,5.845,0,0,1,1.787-1.589,4.59,4.59,0,0,1,2.319-.6,7,7,0,0,1,1.943.269,4.671,4.671,0,0,1,1.716.922.257.257,0,0,0,.184.085c.095,0,.146-.078.156-.234a1.658,1.658,0,0,1,.1-.468.385.385,0,0,1,.411-.234h2.113a.514.514,0,0,1,.582.582q0,.695-.007,1.4t-.007,1.418q0,2.142.05,4.283t.05,4.3a5.258,5.258,0,0,1-.929,3.106,6.182,6.182,0,0,1-2.418,2.035,7.27,7.27,0,0,1-3.191.717m.227-7.73a2.527,2.527,0,0,0,1.8-.681,4.245,4.245,0,0,0,1.078-1.631v-2.964a1.166,1.166,0,0,0-.1-.291,2.638,2.638,0,0,0-.128-.276,3.359,3.359,0,0,0-1.163-1.319,2.991,2.991,0,0,0-1.673-.482,2.7,2.7,0,0,0-1.716.532,3.2,3.2,0,0,0-1.014,1.369,4.748,4.748,0,0,0,.049,3.617,3.889,3.889,0,0,0,1.106,1.525,2.655,2.655,0,0,0,1.759.6" transform="translate(-130.517 -895.523)" fill="#002f35"/>
      <path id="Path_22" data-name="Path 22" d="M230.207,873.61a.514.514,0,0,1,.582-.582h2.241a.514.514,0,0,1,.581.582q0,2.411-.014,4.822t-.014,4.822q0,2.411.014,4.822t.014,4.822a.514.514,0,0,1-.581.582h-2.241a.514.514,0,0,1-.582-.582q0-2.411.014-4.822t.014-4.822q0-2.411-.014-4.822t-.014-4.822" transform="translate(-179.526 -873.028)" fill="#002f35"/>
      <path id="Path_23" data-name="Path 23" d="M260.514,916.14a7.549,7.549,0,0,1-3.61-.822,5.841,5.841,0,0,1-2.39-2.34,7.252,7.252,0,0,1-.851-3.6,7.418,7.418,0,0,1,.808-3.489,6.153,6.153,0,0,1,2.284-2.447,6.508,6.508,0,0,1,3.461-.9,5.25,5.25,0,0,1,3.851,1.376,7.111,7.111,0,0,1,1.893,3.659.5.5,0,0,1,.014.142.434.434,0,0,1-.107.319.848.848,0,0,1-.277.177,8.187,8.187,0,0,1-1.021.4q-.539.17-1.05.369-1.489.554-2.993,1.085t-2.978,1.128c-.076.038-.114.085-.114.142a.226.226,0,0,0,.028.1,3.6,3.6,0,0,0,1.56,1.518,4.689,4.689,0,0,0,2.128.5,4.8,4.8,0,0,0,1.666-.284,10.265,10.265,0,0,0,1.525-.709,1.964,1.964,0,0,1,.2-.1.5.5,0,0,1,.2-.043.386.386,0,0,1,.3.121,1.113,1.113,0,0,1,.177.277q.056.1.22.447t.312.695a1.619,1.619,0,0,1,.149.447.377.377,0,0,1-.085.255,1.214,1.214,0,0,1-.2.185,7.374,7.374,0,0,1-2.447,1.049,11.185,11.185,0,0,1-2.659.355m-3.56-6.907,2.865-.993q1.433-.5,2.851-.993a4.2,4.2,0,0,0-.986-1.362,2.208,2.208,0,0,0-1.553-.581,2.726,2.726,0,0,0-1.787.581,3.456,3.456,0,0,0-1.05,1.482,5.233,5.233,0,0,0-.34,1.865" transform="translate(-197.277 -895.347)" fill="#002f35"/>
      <path id="Path_24" data-name="Path 24" d="M344.773,875.357a.564.564,0,0,1,.539.383,3.956,3.956,0,0,1,.2.518q.085.277.184.532l.766,2.1q.695,1.929,1.362,3.879t1.39,3.865a.918.918,0,0,0,.064.135c.033.062.068.092.106.092s.085-.031.113-.092a1.44,1.44,0,0,0,.057-.135q.213-.61.411-1.234t.4-1.234l.879-2.638q.439-1.319.879-2.624l.709-2.1q.085-.256.17-.532t.184-.518a.574.574,0,0,1,.553-.4h2.993a1.232,1.232,0,0,1,.425.078.33.33,0,0,1,.213.348,1,1,0,0,1-.1.383q-1.12,2.7-2.22,5.4t-2.177,5.425l-2.156,5.418q-.227.61-.461,1.213t-.489,1.2q-.057.128-.2.4t-.34.269q-.2,0-.34-.269t-.2-.4q-.255-.6-.482-1.2t-.468-1.213l-1.915-4.822q-1.12-2.865-2.283-5.723t-2.354-5.695a1.015,1.015,0,0,1-.1-.4.317.317,0,0,1,.213-.34,1.3,1.3,0,0,1,.411-.071Z" transform="translate(-263.42 -874.789)" fill="#002f35"/>
      <path id="Path_25" data-name="Path 25" d="M421.562,916.14a7.549,7.549,0,0,1-3.61-.822,5.841,5.841,0,0,1-2.39-2.34,7.251,7.251,0,0,1-.851-3.6,7.418,7.418,0,0,1,.808-3.489,6.152,6.152,0,0,1,2.284-2.447,6.508,6.508,0,0,1,3.461-.9,5.25,5.25,0,0,1,3.851,1.376,7.111,7.111,0,0,1,1.893,3.659.5.5,0,0,1,.014.142.434.434,0,0,1-.106.319.849.849,0,0,1-.277.177,8.187,8.187,0,0,1-1.021.4q-.539.17-1.049.369-1.489.554-2.993,1.085T418.6,911.19c-.076.038-.114.085-.114.142a.226.226,0,0,0,.028.1,3.6,3.6,0,0,0,1.56,1.518,4.689,4.689,0,0,0,2.128.5,4.8,4.8,0,0,0,1.666-.284,10.267,10.267,0,0,0,1.525-.709,1.968,1.968,0,0,1,.2-.1.5.5,0,0,1,.2-.043.386.386,0,0,1,.3.121,1.112,1.112,0,0,1,.177.277q.056.1.22.447t.312.695a1.619,1.619,0,0,1,.149.447.377.377,0,0,1-.085.255,1.214,1.214,0,0,1-.2.185,7.373,7.373,0,0,1-2.447,1.049,11.185,11.185,0,0,1-2.659.355M418,909.232l2.865-.993q1.433-.5,2.851-.993a4.2,4.2,0,0,0-.986-1.362,2.208,2.208,0,0,0-1.553-.581,2.727,2.727,0,0,0-1.787.581,3.457,3.457,0,0,0-1.05,1.482,5.234,5.234,0,0,0-.34,1.865" transform="translate(-319.123 -895.347)" fill="#002f35"/>
      <path id="Path_26" data-name="Path 26" d="M476.908,903.155a.519.519,0,0,1,.581.511q.042.284.071.567t.057.567a1.228,1.228,0,0,0,.028.163c.019.09.052.135.1.135a.175.175,0,0,0,.135-.085c.043-.057.073-.1.092-.128a4.86,4.86,0,0,1,2.071-1.574,6.92,6.92,0,0,1,2.567-.482,4.516,4.516,0,0,1,2.035.461,3.812,3.812,0,0,1,1.5,1.3,3.515,3.515,0,0,1,.567,2.007q0,2.2.049,4.411t.05,4.411a.52.52,0,0,1-.581.6H484q-.539,0-.582-.582-.042-.61-.028-1.227t0-1.227q-.014-1.3-.014-2.6v-2.582a1.89,1.89,0,0,0-.582-1.51,2.28,2.28,0,0,0-1.546-.5,2.75,2.75,0,0,0-1.979.738,4.522,4.522,0,0,0-1.149,1.815,6.4,6.4,0,0,0-.376,2.113q0,1.248-.014,2.489t-.028,2.489a.514.514,0,0,1-.581.582h-2.227a.52.52,0,0,1-.581-.6q0-.794.021-1.582t.036-1.567q.042-3.319.042-6.638v-1.9a.514.514,0,0,1,.582-.582Z" transform="translate(-364.216 -895.567)" fill="#002f35"/>
      <path id="Path_27" data-name="Path 27" d="M540.424,893.751a5.593,5.593,0,0,1-3.248-.907,5.723,5.723,0,0,1-2-2.425,8.583,8.583,0,0,1,.049-6.815,5.736,5.736,0,0,1,2.135-2.432,6.293,6.293,0,0,1,3.447-.894,6.2,6.2,0,0,1,3.929,1.3.379.379,0,0,0,.2.1q.085,0,.1-.1a1.148,1.148,0,0,0,.014-.142q0-1.334.007-2.652t.021-2.652q.014-.624,0-1.27t.028-1.255q.043-.581.582-.581H547.9a.52.52,0,0,1,.582.6q0,.78-.021,1.553t-.036,1.553q-.043,3.247-.043,6.524t.043,6.524q.014.781.036,1.553t.021,1.553a.52.52,0,0,1-.582.6h-2.241q-.525,0-.546-.4t-.035-.766a1.014,1.014,0,0,0-.014-.134c-.01-.061-.038-.092-.085-.092a.378.378,0,0,0-.2.1,7.45,7.45,0,0,1-2.043,1.156,6.605,6.605,0,0,1-2.312.4m1.035-3.135a4.206,4.206,0,0,0,2.2-.567,3.285,3.285,0,0,0,1.39-1.773q-.014-.5-.014-.978v-.965q0-.227.014-.5a2.645,2.645,0,0,0-.014-.482,1.131,1.131,0,0,0-.156-.411l-.213-.384a3.216,3.216,0,0,0-1.4-1.184,4.384,4.384,0,0,0-1.808-.39,3.285,3.285,0,0,0-1.879.539,3.583,3.583,0,0,0-1.234,1.418,4.276,4.276,0,0,0-.433,1.915,3.822,3.822,0,0,0,.461,1.837,3.774,3.774,0,0,0,1.269,1.39,3.231,3.231,0,0,0,1.815.532" transform="translate(-409.751 -873.029)" fill="#002f35"/>
      <path id="Path_28" data-name="Path 28" d="M600.789,909.519a7.221,7.221,0,0,1,.844-3.517,6.314,6.314,0,0,1,2.362-2.447,6.737,6.737,0,0,1,3.5-.9,6.459,6.459,0,0,1,3.418.887,6.163,6.163,0,0,1,2.277,2.418,7.221,7.221,0,0,1,.815,3.446,7.349,7.349,0,0,1-.809,3.5,5.955,5.955,0,0,1-2.276,2.39,6.735,6.735,0,0,1-3.482.865,7.093,7.093,0,0,1-3.5-.829,5.869,5.869,0,0,1-2.326-2.319,7.053,7.053,0,0,1-.83-3.489m6.638-4a2.806,2.806,0,0,0-1.8.574,3.584,3.584,0,0,0-1.092,1.468,4.857,4.857,0,0,0-.369,1.872,4.209,4.209,0,0,0,.39,1.773,3.542,3.542,0,0,0,1.114,1.39,2.791,2.791,0,0,0,1.716.539,2.874,2.874,0,0,0,1.794-.546,3.375,3.375,0,0,0,1.078-1.411,4.825,4.825,0,0,0,0-3.667,3.5,3.5,0,0,0-1.071-1.433,2.751,2.751,0,0,0-1.759-.56" transform="translate(-459.919 -895.435)" fill="#002f35"/>
      <path id="Path_29" data-name="Path 29" d="M666.407,903.727a.515.515,0,0,1,.581.525l.142,1.617c0,.01.009.078.028.206s.052.192.1.192.1-.052.149-.156l.092-.184a5.062,5.062,0,0,1,1.418-1.716,3.438,3.438,0,0,1,2.113-.624,7.342,7.342,0,0,1,.759.05q.461.05.461.475a4.051,4.051,0,0,1-.085.667q-.085.454-.191.915t-.163.7a.844.844,0,0,1-.177.376.52.52,0,0,1-.4.135,1.78,1.78,0,0,1-.277-.021,1.869,1.869,0,0,0-.291-.021,2.689,2.689,0,0,0-1.886.7,4.391,4.391,0,0,0-1.149,1.723,5.713,5.713,0,0,0-.383,2.014v4.709a.514.514,0,0,1-.582.582h-2.2a.52.52,0,0,1-.581-.6q0-2.2.021-4.39t.021-4.375v-2.922a.514.514,0,0,1,.582-.582Z" transform="translate(-507.637 -896.139)" fill="#002f35"/>
    </g>
  </g>
</svg>
